<svg width="24" height="24" viewBox="0 0 24 24" fill="none" xmlns="http://www.w3.org/2000/svg">
<path d="M7.23947 21.3673C6.37075 21.3673 5.71933 21.1527 5.28521 20.7235C4.85061 20.2948 4.6333 19.6515 4.6333 18.7937V10.5095C4.6333 9.65209 4.85061 9.0088 5.28521 8.57961C5.71933 8.15092 6.37075 7.93657 7.23947 7.93657H9.73848V9.27292H7.25648C6.84158 9.27292 6.52326 9.38354 6.30152 9.60479C6.08027 9.82603 5.96965 10.1525 5.96965 10.5841V18.719C5.96965 19.1507 6.08027 19.4771 6.30152 19.6984C6.52326 19.9201 6.84158 20.031 7.25648 20.031H16.7358C17.1453 20.031 17.4634 19.9201 17.69 19.6984C17.9172 19.4771 18.0308 19.1507 18.0308 18.719V10.5841C18.0308 10.1525 17.9172 9.82603 17.69 9.60479C17.4634 9.38354 17.1453 9.27292 16.7358 9.27292H14.262V7.93657H16.761C17.6297 7.93657 18.2811 8.15239 18.7152 8.58405C19.1498 9.0157 19.3671 9.65751 19.3671 10.5095V18.7937C19.3671 19.6461 19.1498 20.2882 18.7152 20.7198C18.2811 21.1515 17.6297 21.3673 16.761 21.3673H7.23947ZM11.9958 14.8674C11.8189 14.8674 11.6654 14.8038 11.5353 14.6767C11.4052 14.5496 11.3402 14.3973 11.3402 14.2199V5.69552L11.3904 4.45009L10.8257 5.03918L9.57217 6.38439C9.45588 6.51695 9.30362 6.58322 9.11539 6.58322C8.93849 6.58322 8.79461 6.52803 8.68374 6.41766C8.57336 6.30679 8.51817 6.16561 8.51817 5.99413C8.51817 5.83892 8.58174 5.69503 8.70887 5.56248L11.5146 2.85652C11.6033 2.77325 11.6849 2.7151 11.7593 2.68209C11.8342 2.64908 11.913 2.63257 11.9958 2.63257C12.0845 2.63257 12.1663 2.64908 12.2412 2.68209C12.3156 2.7151 12.3944 2.77325 12.4777 2.85652L15.2834 5.56248C15.416 5.69503 15.4823 5.83892 15.4823 5.99413C15.4823 6.16561 15.4241 6.30679 15.3078 6.41766C15.192 6.52803 15.0481 6.58322 14.8762 6.58322C14.6939 6.58322 14.5445 6.51695 14.4283 6.38439L13.1666 5.03918L12.61 4.45009L12.6603 5.69552V14.2199C12.6603 14.3973 12.5952 14.5496 12.4651 14.6767C12.335 14.8038 12.1786 14.8674 11.9958 14.8674Z" fill="currentColor"/>
</svg>
